<svg width="152" height="55" viewBox="0 0 152 55" fill="none" xmlns="http://www.w3.org/2000/svg">
<path d="M54.1867 35.44C52.6067 36.76 50.3667 37.42 47.4667 37.42C44.5667 37.42 42.5567 36.75 41.4367 35.41C40.6367 34.49 40.2367 33.22 40.2367 31.6C40.2367 30.88 40.3167 30.09 40.4767 29.23L42.9067 15.4H48.3067L45.8767 29.11C45.7967 29.61 45.7567 30.13 45.7567 30.67C45.7567 32.07 46.5967 32.77 48.2767 32.77C49.2767 32.77 50.0767 32.51 50.6767 31.99C51.2767 31.47 51.6967 30.51 51.9367 29.11L54.3667 15.4H59.7667L57.3367 29.23C56.8367 32.03 55.7867 34.1 54.1867 35.44ZM78.7389 25.69C78.7389 26.35 78.5389 26.96 78.1389 27.52H73.2189C73.3789 27.4 73.4589 27.2 73.4589 26.92C73.4589 26.64 73.2989 26.42 72.9789 26.26C72.6589 26.08 72.2489 25.99 71.7489 25.99C70.2489 25.99 69.4989 26.45 69.4989 27.37C69.4989 27.73 69.7789 27.99 70.3389 28.15C70.8989 28.31 71.5789 28.44 72.3789 28.54C73.1789 28.64 73.9789 28.79 74.7789 28.99C75.5789 29.17 76.2589 29.54 76.8189 30.1C77.3789 30.66 77.6589 31.41 77.6589 32.35C77.6589 34.01 76.9889 35.27 75.6489 36.13C74.3289 36.99 72.3989 37.42 69.8589 37.42C67.3189 37.42 65.5389 37.01 64.5189 36.19C63.7189 35.55 63.3189 34.67 63.3189 33.55C63.3189 33.23 63.3489 32.9 63.4089 32.56L68.4189 32.5C68.3789 32.78 68.5389 33.03 68.8989 33.25C69.2789 33.45 69.8289 33.55 70.5489 33.55C71.2689 33.55 71.7889 33.48 72.1089 33.34C72.4289 33.18 72.5889 32.89 72.5889 32.47C72.5889 32.19 72.3089 32 71.7489 31.9C71.1889 31.78 70.4989 31.68 69.6789 31.6C68.8789 31.52 68.0689 31.39 67.2489 31.21C66.4489 31.03 65.7689 30.65 65.2089 30.07C64.6489 29.49 64.3689 28.73 64.3689 27.79C64.3689 25.97 65.0689 24.57 66.4689 23.59C67.8889 22.61 69.9289 22.12 72.5889 22.12C76.6889 22.12 78.7389 23.31 78.7389 25.69ZM89.8637 37.42C85.7037 37.42 83.6237 35.98 83.6237 33.1C83.6237 32.7 83.6637 32.27 83.7437 31.81L84.3737 28.09C84.7137 26.17 85.5937 24.7 87.0137 23.68C88.4537 22.64 90.3537 22.12 92.7137 22.12C96.7338 22.12 98.7438 23.64 98.7438 26.68C98.7438 27.12 98.7038 27.6 98.6238 28.12L98.2637 30.25H89.1137L88.9937 30.94C88.9537 31.18 88.9337 31.4 88.9337 31.6C88.9337 32.7 89.5837 33.25 90.8837 33.25C91.3637 33.25 91.7737 33.1 92.1137 32.8C92.4537 32.5 92.6537 32.15 92.7137 31.75L97.6937 31.81C97.0337 35.55 94.4237 37.42 89.8637 37.42ZM93.4637 28.42C93.5437 28.08 93.5837 27.77 93.5837 27.49C93.5837 27.19 93.4537 26.89 93.1937 26.59C92.9337 26.29 92.5137 26.14 91.9337 26.14C91.3737 26.14 90.8537 26.33 90.3737 26.71C89.9137 27.09 89.5937 27.66 89.4137 28.42H93.4637ZM118.506 25.63C118.506 26.31 118.386 26.97 118.146 27.61C117.926 28.25 117.706 28.72 117.486 29.02L117.156 29.44H112.626C113.126 28.98 113.376 28.41 113.376 27.73C113.376 27.37 113.256 27.08 113.016 26.86C112.796 26.62 112.486 26.5 112.086 26.5C111.406 26.5 110.816 26.84 110.316 27.52L108.636 37H103.536L106.086 22.57H110.826L110.466 24.58C111.606 22.96 112.986 22.15 114.606 22.15C115.906 22.15 116.876 22.46 117.516 23.08C118.176 23.7 118.506 24.55 118.506 25.63ZM132.327 15.4L135.537 25.75L142.437 15.4H148.107L144.297 37H138.867L141.027 24.82L136.407 32.08H132.477L130.437 24.82L128.277 37H122.877L126.687 15.4H132.327Z" fill="#0275D8"/>
<path d="M54.1867 35.44L56.1101 37.7423L56.1129 37.7399L54.1867 35.44ZM41.4367 35.41L43.7386 33.4861L43.7198 33.4636L43.7005 33.4415L41.4367 35.41ZM40.4767 29.23L43.4261 29.7787L43.4289 29.764L43.4315 29.7492L40.4767 29.23ZM42.9067 15.4V12.4H40.3879L39.952 14.8808L42.9067 15.4ZM48.3067 15.4L51.2607 15.9236L51.8852 12.4H48.3067V15.4ZM45.8767 29.11L42.9228 28.5864L42.9184 28.6112L42.9144 28.636L45.8767 29.11ZM50.6767 31.99L48.7119 29.7229L48.7119 29.7229L50.6767 31.99ZM51.9367 29.11L48.9828 28.5864L48.9813 28.5948L48.9799 28.6031L51.9367 29.11ZM54.3667 15.4V12.4H51.8517L51.4128 14.8764L54.3667 15.4ZM59.7667 15.4L62.7215 15.9192L63.3398 12.4H59.7667V15.4ZM57.3367 29.23L60.29 29.7574L60.2915 29.7492L57.3367 29.23ZM52.2633 33.1377C51.4064 33.8536 49.9471 34.42 47.4667 34.42V40.42C50.7863 40.42 53.807 39.6664 56.1101 37.7423L52.2633 33.1377ZM47.4667 34.42C44.8835 34.42 44.0025 33.8018 43.7386 33.4861L39.1349 37.3339C41.1109 39.6982 44.25 40.42 47.4667 40.42V34.42ZM43.7005 33.4415C43.5126 33.2253 43.2367 32.7376 43.2367 31.6H37.2367C37.2367 33.7024 37.7608 35.7547 39.1729 37.3785L43.7005 33.4415ZM43.2367 31.6C43.2367 31.0983 43.2929 30.4948 43.4261 29.7787L37.5273 28.6813C37.3406 29.6852 37.2367 30.6617 37.2367 31.6H43.2367ZM43.4315 29.7492L45.8615 15.9192L39.952 14.8808L37.522 28.7108L43.4315 29.7492ZM42.9067 18.4H48.3067V12.4H42.9067V18.4ZM45.3528 14.8764L42.9228 28.5864L48.8307 29.6336L51.2607 15.9236L45.3528 14.8764ZM42.9144 28.636C42.8077 29.3027 42.7567 29.9817 42.7567 30.67H48.7567C48.7567 30.2783 48.7857 29.9173 48.839 29.584L42.9144 28.636ZM42.7567 30.67C42.7567 31.9908 43.1791 33.4771 44.4662 34.5497C45.6485 35.5349 47.094 35.77 48.2767 35.77V29.77C48.0552 29.77 47.9687 29.7459 47.9771 29.7482C47.993 29.7526 48.1328 29.795 48.3073 29.9403C48.4933 30.0954 48.6262 30.2911 48.6996 30.4746C48.7657 30.6398 48.7567 30.7262 48.7567 30.67H42.7567ZM48.2767 35.77C49.8053 35.77 51.3659 35.3626 52.6415 34.2571L48.7119 29.7229C48.7329 29.7048 48.7409 29.7084 48.6995 29.7219C48.6493 29.7382 48.5196 29.77 48.2767 29.77V35.77ZM52.6415 34.2571C54.0433 33.0422 54.6188 31.2197 54.8936 29.6169L48.9799 28.6031C48.8874 29.1423 48.7784 29.4829 48.6932 29.6775C48.6074 29.8738 48.585 29.8329 48.7119 29.7229L52.6415 34.2571ZM54.8907 29.6336L57.3207 15.9236L51.4128 14.8764L48.9828 28.5864L54.8907 29.6336ZM54.3667 18.4H59.7667V12.4H54.3667V18.4ZM56.812 14.8808L54.382 28.7108L60.2915 29.7492L62.7215 15.9192L56.812 14.8808ZM54.3834 28.7026C53.9623 31.0608 53.153 32.3926 52.2605 33.1401L56.1129 37.7399C58.4205 35.8074 59.7111 32.9992 60.29 29.7574L54.3834 28.7026ZM78.1389 27.52V30.52H79.6828L80.5801 29.2637L78.1389 27.52ZM73.2189 27.52L71.4189 25.12L64.2189 30.52H73.2189V27.52ZM72.9789 26.26L71.5081 28.8747L71.5719 28.9106L71.6373 28.9433L72.9789 26.26ZM70.3389 28.15L71.1631 25.2654L71.1631 25.2654L70.3389 28.15ZM72.3789 28.54L72.0068 31.5168L72.0068 31.5168L72.3789 28.54ZM74.7789 28.99L74.0513 31.9004L74.0857 31.909L74.1204 31.9168L74.7789 28.99ZM76.8189 30.1L78.9402 27.9787L78.9402 27.9787L76.8189 30.1ZM75.6489 36.13L74.0285 33.6052L74.0199 33.6108L74.0113 33.6164L75.6489 36.13ZM64.5189 36.19L66.3986 33.8519L66.393 33.8474L64.5189 36.19ZM63.4089 32.56L63.373 29.5602L60.8867 29.59L60.4546 32.0386L63.4089 32.56ZM68.4189 32.5L71.3888 32.9243L71.8839 29.4583L68.383 29.5002L68.4189 32.5ZM68.8989 33.25L67.3346 35.8098L67.4166 35.86L67.5017 35.9048L68.8989 33.25ZM72.1089 33.34L73.3114 36.0885L73.3818 36.0577L73.4505 36.0233L72.1089 33.34ZM71.7489 31.9L71.1203 34.8334L71.1708 34.8442L71.2215 34.8533L71.7489 31.9ZM69.6789 31.6L69.3804 34.5851L69.3876 34.5858L69.6789 31.6ZM67.2489 31.21L66.5904 34.1368L66.598 34.1386L66.6057 34.1402L67.2489 31.21ZM65.2089 30.07L63.0507 32.1538L63.0507 32.1538L65.2089 30.07ZM66.4689 23.59L64.7649 21.1209L64.7567 21.1266L64.7485 21.1323L66.4689 23.59ZM75.7389 25.69C75.7389 25.7029 75.738 25.7086 75.7379 25.7089C75.7379 25.7093 75.7379 25.7092 75.738 25.7086C75.7381 25.7081 75.7382 25.7078 75.7382 25.7078C75.7382 25.7079 75.7379 25.7089 75.737 25.711C75.7362 25.713 75.7346 25.7166 75.732 25.7217C75.7268 25.7317 75.7165 25.7499 75.6977 25.7763L80.5801 29.2637C81.327 28.218 81.7389 27.0031 81.7389 25.69H75.7389ZM78.1389 24.52H73.2189V30.52H78.1389V24.52ZM75.0189 29.92C76.2067 29.0291 76.4589 27.742 76.4589 26.92H70.4589C70.4589 26.7873 70.4762 26.5089 70.6135 26.1658C70.7615 25.7958 71.0248 25.4156 71.4189 25.12L75.0189 29.92ZM76.4589 26.92C76.4589 25.1718 75.3216 24.0772 74.3205 23.5767L71.6373 28.9433C71.4979 28.8736 71.1903 28.6912 70.9127 28.3095C70.6082 27.8909 70.4589 27.3941 70.4589 26.92H76.4589ZM74.4497 23.6453C73.5472 23.1376 72.5856 22.99 71.7489 22.99V28.99C71.8223 28.99 71.83 28.9969 71.7882 28.9877C71.744 28.978 71.6408 28.9494 71.5081 28.8747L74.4497 23.6453ZM71.7489 22.99C70.7898 22.99 69.5659 23.1196 68.4929 23.7777C67.1802 24.5828 66.4989 25.9245 66.4989 27.37H72.4989C72.4989 27.5543 72.4586 27.8617 72.2754 28.1988C72.0889 28.5419 71.8355 28.7662 71.6299 28.8923C71.4443 29.0062 71.3277 29.0232 71.3654 29.0155C71.3995 29.0085 71.5181 28.99 71.7489 28.99V22.99ZM66.4989 27.37C66.4989 28.44 66.9584 29.3749 67.6676 30.0334C68.2878 30.6093 68.9975 30.8868 69.5147 31.0346L71.1631 25.2654C71.1639 25.2657 71.1775 25.2696 71.2017 25.2787C71.2257 25.2878 71.264 25.3034 71.313 25.328C71.4072 25.3751 71.5699 25.4691 71.7503 25.6366C71.937 25.81 72.137 26.0575 72.2855 26.3865C72.4359 26.7195 72.4989 27.0595 72.4989 27.37H66.4989ZM69.5147 31.0346C70.2669 31.2495 71.1074 31.4044 72.0068 31.5168L72.751 25.5632C72.0504 25.4756 71.5309 25.3705 71.1631 25.2654L69.5147 31.0346ZM72.0068 31.5168C72.6844 31.6015 73.3657 31.729 74.0513 31.9004L75.5065 26.0796C74.5921 25.851 73.6734 25.6785 72.751 25.5632L72.0068 31.5168ZM74.1204 31.9168C74.387 31.9768 74.5538 32.0776 74.6976 32.2213L78.9402 27.9787C77.964 27.0024 76.7708 26.3632 75.4374 26.0632L74.1204 31.9168ZM74.6976 32.2213C74.688 32.2117 74.6743 32.1958 74.661 32.175C74.6477 32.1542 74.6407 32.1381 74.6384 32.1318C74.6333 32.1183 74.6589 32.1771 74.6589 32.35H80.6589C80.6589 30.7741 80.1665 29.205 78.9402 27.9787L74.6976 32.2213ZM74.6589 32.35C74.6589 33.0408 74.4656 33.3248 74.0285 33.6052L77.2693 38.6548C79.5123 37.2152 80.6589 34.9792 80.6589 32.35H74.6589ZM74.0113 33.6164C73.3928 34.0193 72.1411 34.42 69.8589 34.42V40.42C72.6567 40.42 75.265 39.9607 77.2865 38.6436L74.0113 33.6164ZM69.8589 34.42C67.4522 34.42 66.5748 33.9935 66.3986 33.8519L62.6392 38.5281C64.5031 40.0265 67.1856 40.42 69.8589 40.42V34.42ZM66.393 33.8474C66.3608 33.8216 66.3493 33.8071 66.3486 33.8061C66.3478 33.8051 66.3482 33.8055 66.349 33.8069C66.3499 33.8084 66.3503 33.8092 66.35 33.8086C66.3497 33.808 66.3481 33.8043 66.3456 33.7966C66.3432 33.7889 66.3395 33.7759 66.3356 33.7567C66.328 33.7182 66.3189 33.6515 66.3189 33.55H60.3189C60.3189 35.4843 61.0607 37.2653 62.6448 38.5326L66.393 33.8474ZM66.3189 33.55C66.3189 33.4179 66.3313 33.2626 66.3633 33.0814L60.4546 32.0386C60.3665 32.5374 60.3189 33.0421 60.3189 33.55H66.3189ZM63.4448 35.5598L68.4548 35.4998L68.383 29.5002L63.373 29.5602L63.4448 35.5598ZM65.4491 32.0757C65.161 34.0924 66.5301 35.3182 67.3346 35.8098L70.4633 30.6902C70.5188 30.7241 70.7896 30.8957 71.0357 31.2803C71.3224 31.7282 71.4757 32.3153 71.3888 32.9243L65.4491 32.0757ZM67.5017 35.9048C68.5111 36.436 69.6314 36.55 70.5489 36.55V30.55C70.3204 30.55 70.189 30.5336 70.1331 30.5234C70.1075 30.5187 70.1108 30.5177 70.1368 30.5261C70.1628 30.5345 70.2193 30.5548 70.2961 30.5952L67.5017 35.9048ZM70.5489 36.55C71.336 36.55 72.3883 36.4923 73.3114 36.0885L70.9064 30.5915C71.0112 30.5457 71.0831 30.5266 71.1038 30.5214C71.1264 30.5158 71.1207 30.5187 71.0787 30.5243C70.9898 30.5363 70.8205 30.55 70.5489 30.55V36.55ZM73.4505 36.0233C74.1082 35.6944 74.6983 35.1718 75.0956 34.4517C75.4776 33.7594 75.5889 33.0537 75.5889 32.47H69.5889C69.5889 32.3063 69.6202 31.9556 69.8422 31.5533C70.0795 31.1232 70.4296 30.8256 70.7673 30.6567L73.4505 36.0233ZM75.5889 32.47C75.5889 31.1201 74.8302 30.1554 74.0634 29.6351C73.4155 29.1954 72.7258 29.027 72.2763 28.9467L71.2215 34.8533C71.3321 34.873 71.0623 34.8496 70.6944 34.5999C70.4851 34.4579 70.1956 34.2092 69.9591 33.8123C69.7107 33.3953 69.5889 32.9271 69.5889 32.47H75.5889ZM72.3775 28.9666C71.6696 28.8149 70.859 28.7009 69.9702 28.6142L69.3876 34.5858C70.1388 34.6591 70.7082 34.7451 71.1203 34.8334L72.3775 28.9666ZM69.9774 28.6149C69.2983 28.547 68.6034 28.4359 67.8921 28.2798L66.6057 34.1402C67.5344 34.3441 68.4596 34.493 69.3804 34.5851L69.9774 28.6149ZM67.9074 28.2832C67.6685 28.2294 67.5129 28.1372 67.3671 27.9862L63.0507 32.1538C64.0249 33.1628 65.2293 33.8306 66.5904 34.1368L67.9074 28.2832ZM67.3671 27.9862C67.3688 27.988 67.3756 27.9956 67.3833 28.0078C67.3909 28.0201 67.3941 28.0282 67.3939 28.0279C67.3936 28.027 67.3876 28.0106 67.3815 27.9737C67.3753 27.9362 67.3689 27.8763 67.3689 27.79H61.3689C61.3689 29.3689 61.8616 30.9222 63.0507 32.1538L67.3671 27.9862ZM67.3689 27.79C67.3689 26.8739 67.6509 26.4246 68.1893 26.0477L64.7485 21.1323C62.4869 22.7154 61.3689 25.0661 61.3689 27.79H67.3689ZM68.1729 26.0591C68.8878 25.5657 70.2305 25.12 72.5889 25.12V19.12C69.6274 19.12 66.89 19.6543 64.7649 21.1209L68.1729 26.0591ZM72.5889 25.12C74.4469 25.12 75.3506 25.407 75.6953 25.607C75.8223 25.6808 75.7965 25.6978 75.7529 25.622C75.7098 25.5468 75.7389 25.5363 75.7389 25.69H81.7389C81.7389 23.4361 80.6619 21.5525 78.7075 20.418C77.0022 19.428 74.8309 19.12 72.5889 19.12V25.12ZM83.7437 31.81L86.6994 32.324L86.7016 32.3109L83.7437 31.81ZM84.3737 28.09L81.4197 27.5669L81.4177 27.578L81.4159 27.5891L84.3737 28.09ZM87.0137 23.68L88.764 26.1166L88.7702 26.112L87.0137 23.68ZM98.6238 28.12L101.582 28.62L101.585 28.5981L101.589 28.5762L98.6238 28.12ZM98.2637 30.25V33.25H100.799L101.222 30.75L98.2637 30.25ZM89.1137 30.25V27.25H86.5905L86.1581 29.736L89.1137 30.25ZM88.9937 30.94L86.0381 30.426L86.0363 30.4364L86.0346 30.4468L88.9937 30.94ZM92.1137 32.8L94.0986 35.0495L94.0986 35.0495L92.1137 32.8ZM92.7137 31.75L92.7499 28.7502L90.1349 28.7187L89.7469 31.305L92.7137 31.75ZM97.6937 31.81L100.648 32.3314L101.262 28.8528L97.7299 28.8102L97.6937 31.81ZM93.4637 28.42V31.42H95.8398L96.384 29.1071L93.4637 28.42ZM93.1937 26.59L90.9267 28.5548L90.9267 28.5548L93.1937 26.59ZM90.3737 26.71L88.5116 24.3579L88.4872 24.3772L88.4631 24.3971L90.3737 26.71ZM89.4137 28.42L86.4945 27.7286L85.6202 31.42H89.4137V28.42ZM89.8637 34.42C88.0372 34.42 87.2 34.0871 86.8914 33.8734C86.774 33.7921 86.7388 33.7344 86.7168 33.6886C86.6877 33.6282 86.6237 33.4589 86.6237 33.1H80.6237C80.6237 35.3664 81.5049 37.4419 83.4761 38.8066C85.2475 40.0329 87.5303 40.42 89.8637 40.42V34.42ZM86.6237 33.1C86.6237 32.898 86.6441 32.6416 86.6994 32.324L80.7881 31.296C80.6834 31.8984 80.6237 32.502 80.6237 33.1H86.6237ZM86.7016 32.3109L87.3316 28.5909L81.4159 27.5891L80.7859 31.3091L86.7016 32.3109ZM87.3278 28.6131C87.5485 27.3667 88.055 26.6258 88.764 26.1166L85.2635 21.2434C83.1325 22.7742 81.879 24.9733 81.4197 27.5669L87.3278 28.6131ZM88.7702 26.112C89.5546 25.5456 90.7792 25.12 92.7137 25.12V19.12C89.9283 19.12 87.3529 19.7344 85.2573 21.248L88.7702 26.112ZM92.7137 25.12C94.4314 25.12 95.1714 25.4597 95.4267 25.6528C95.524 25.7264 95.7438 25.8827 95.7438 26.68H101.744C101.744 24.4373 100.958 22.3136 99.0458 20.8672C97.2911 19.5403 95.0161 19.12 92.7137 19.12V25.12ZM95.7438 26.68C95.7438 26.9411 95.7198 27.2665 95.6586 27.6638L101.589 28.5762C101.688 27.9335 101.744 27.2989 101.744 26.68H95.7438ZM95.6657 27.62L95.3057 29.75L101.222 30.75L101.582 28.62L95.6657 27.62ZM98.2637 27.25H89.1137V33.25H98.2637V27.25ZM86.1581 29.736L86.0381 30.426L91.9494 31.454L92.0694 30.764L86.1581 29.736ZM86.0346 30.4468C85.973 30.8162 85.9337 31.2039 85.9337 31.6H91.9337C91.9337 31.6 91.9337 31.6 91.9337 31.6C91.9337 31.6 91.9337 31.6 91.9337 31.6C91.9337 31.6 91.9337 31.6 91.9337 31.6C91.9337 31.5999 91.9337 31.5999 91.9338 31.5998C91.9338 31.5997 91.9338 31.5995 91.9338 31.5993C91.9338 31.5988 91.9338 31.5981 91.9338 31.5972C91.9338 31.5954 91.9339 31.5926 91.9341 31.5889C91.9345 31.5816 91.9351 31.5709 91.9364 31.5566C91.939 31.5278 91.944 31.487 91.9529 31.4332L86.0346 30.4468ZM85.9337 31.6C85.9337 32.7559 86.2989 34.1254 87.4834 35.1277C88.5719 36.0487 89.8823 36.25 90.8837 36.25V30.25C90.5852 30.25 90.9206 30.1763 91.3591 30.5473C91.591 30.7435 91.7542 30.9871 91.8468 31.2223C91.9323 31.4393 91.9337 31.5861 91.9337 31.6H85.9337ZM90.8837 36.25C92.048 36.25 93.1765 35.8631 94.0986 35.0495L90.1289 30.5505C90.2278 30.4632 90.3614 30.3783 90.5205 30.3201C90.677 30.2629 90.807 30.25 90.8837 30.25V36.25ZM94.0986 35.0495C94.8998 34.3426 95.5031 33.3784 95.6806 32.195L89.7469 31.305C89.7718 31.139 89.8292 30.9726 89.914 30.8241C89.9965 30.6798 90.0824 30.5915 90.1289 30.5505L94.0986 35.0495ZM92.6776 34.7498L97.6576 34.8098L97.7299 28.8102L92.7499 28.7502L92.6776 34.7498ZM94.7394 31.2886C94.519 32.5376 94.0466 33.1829 93.494 33.5788C92.8722 34.0243 91.7713 34.42 89.8637 34.42V40.42C92.5162 40.42 95.0003 39.8807 96.9885 38.4562C99.0459 36.9821 100.209 34.8224 100.648 32.3314L94.7394 31.2886ZM96.384 29.1071C96.5046 28.5948 96.5837 28.05 96.5837 27.49H90.5837C90.5837 27.4879 90.5839 27.5065 90.5784 27.5486C90.573 27.5906 90.5626 27.6515 90.5435 27.7329L96.384 29.1071ZM96.5837 27.49C96.5837 26.2623 96.0385 25.2918 95.4608 24.6252L90.9267 28.5548C90.869 28.4882 90.5837 28.1177 90.5837 27.49H96.5837ZM95.4608 24.6252C94.4085 23.411 92.974 23.14 91.9337 23.14V29.14C92.0535 29.14 91.459 29.169 90.9267 28.5548L95.4608 24.6252ZM91.9337 23.14C90.6336 23.14 89.469 23.5999 88.5116 24.3579L92.2359 29.0621C92.2513 29.0499 92.2239 29.0745 92.1533 29.1003C92.0796 29.1272 92.0008 29.14 91.9337 29.14V23.14ZM88.4631 24.3971C87.363 25.3059 86.7786 26.5293 86.4945 27.7286L92.333 29.1114C92.3707 28.9522 92.4051 28.8905 92.4047 28.8911C92.404 28.8924 92.3946 28.9087 92.3736 28.9343C92.3523 28.9603 92.3226 28.9913 92.2844 29.0229L88.4631 24.3971ZM89.4137 31.42H93.4637V25.42H89.4137V31.42ZM118.146 27.61L115.337 26.5566L115.323 26.5955L115.309 26.6348L118.146 27.61ZM117.486 29.02L119.845 30.8735L119.876 30.8343L119.906 30.7941L117.486 29.02ZM117.156 29.44V32.44H118.615L119.515 31.2935L117.156 29.44ZM112.626 29.44L110.595 27.2322L104.935 32.44H112.626V29.44ZM113.016 26.86L110.805 28.8872L110.893 28.9833L110.989 29.0715L113.016 26.86ZM110.316 27.52L107.9 25.7428L107.485 26.307L107.363 26.9965L110.316 27.52ZM108.636 37V40H111.152L111.59 37.5235L108.636 37ZM103.536 37L100.582 36.4779L99.9599 40H103.536V37ZM106.086 22.57V19.57H103.57L103.132 22.0479L106.086 22.57ZM110.826 22.57L113.779 23.0989L114.412 19.57H110.826V22.57ZM110.466 24.58L107.513 24.0511L112.92 26.3065L110.466 24.58ZM117.516 23.08L115.429 25.2347L115.446 25.2508L115.462 25.2665L117.516 23.08ZM115.506 25.63C115.506 25.9484 115.452 26.2517 115.337 26.5566L120.955 28.6634C121.321 27.6883 121.506 26.6716 121.506 25.63H115.506ZM115.309 26.6348C115.224 26.8823 115.153 27.0562 115.099 27.1707C115.042 27.2925 115.027 27.3012 115.067 27.2459L119.906 30.7941C120.395 30.1273 120.732 29.3177 120.984 28.5852L115.309 26.6348ZM115.128 27.1665L114.798 27.5865L119.515 31.2935L119.845 30.8735L115.128 27.1665ZM117.156 26.44H112.626V32.44H117.156V26.44ZM114.658 31.6478C115.776 30.6192 116.376 29.2482 116.376 27.73H110.376C110.376 27.6939 110.385 27.5913 110.442 27.4625C110.498 27.3337 110.568 27.2573 110.595 27.2322L114.658 31.6478ZM116.376 27.73C116.376 26.628 115.973 25.5003 115.044 24.6485L110.989 29.0715C110.799 28.8967 110.628 28.6648 110.514 28.3896C110.403 28.1213 110.376 27.8862 110.376 27.73H116.376ZM115.228 24.8328C114.313 23.8352 113.12 23.5 112.086 23.5V29.5C111.989 29.5 111.789 29.4856 111.536 29.3877C111.27 29.2847 111.014 29.1147 110.805 28.8872L115.228 24.8328ZM112.086 23.5C110.222 23.5 108.813 24.501 107.9 25.7428L112.733 29.2972C112.795 29.214 112.772 29.2735 112.632 29.3543C112.561 29.3952 112.472 29.4342 112.369 29.4617C112.266 29.4892 112.169 29.5 112.086 29.5V23.5ZM107.363 26.9965L105.683 36.4765L111.59 37.5235L113.27 28.0435L107.363 26.9965ZM108.636 34H103.536V40H108.636V34ZM106.491 37.5221L109.041 23.0921L103.132 22.0479L100.582 36.4779L106.491 37.5221ZM106.086 25.57H110.826V19.57H106.086V25.57ZM107.873 22.0411L107.513 24.0511L113.419 25.1089L113.779 23.0989L107.873 22.0411ZM112.92 26.3065C113.64 25.2838 114.185 25.15 114.606 25.15V19.15C111.788 19.15 109.573 20.6362 108.013 22.8535L112.92 26.3065ZM114.606 25.15C115.483 25.15 115.561 25.3621 115.429 25.2347L119.604 20.9253C118.192 19.5579 116.33 19.15 114.606 19.15V25.15ZM115.462 25.2665C115.468 25.2714 115.465 25.2702 115.461 25.2639C115.457 25.2578 115.458 25.2572 115.462 25.2682C115.471 25.2896 115.506 25.3943 115.506 25.63H121.506C121.506 23.8947 120.949 22.1889 119.571 20.8935L115.462 25.2665ZM132.327 15.4L135.192 14.5113L134.537 12.4H132.327V15.4ZM135.537 25.75L132.671 26.6387L134.538 32.6567L138.033 27.4141L135.537 25.75ZM142.437 15.4V12.4H140.831L139.94 13.7359L142.437 15.4ZM148.107 15.4L151.061 15.9211L151.682 12.4H148.107V15.4ZM144.297 37V40H146.814L147.251 37.5211L144.297 37ZM138.867 37L135.913 36.4762L135.288 40H138.867V37ZM141.027 24.82L143.981 25.3438L138.496 23.2094L141.027 24.82ZM136.407 32.08V35.08H138.053L138.938 33.6906L136.407 32.08ZM132.477 32.08L129.588 32.8915L130.203 35.08H132.477V32.08ZM130.437 24.82L133.325 24.0085L127.483 24.2962L130.437 24.82ZM128.277 37V40H130.791L131.231 37.5238L128.277 37ZM122.877 37L119.922 36.4789L119.301 40H122.877V37ZM126.687 15.4V12.4H124.169L123.732 14.8789L126.687 15.4ZM129.461 16.2887L132.671 26.6387L138.402 24.8613L135.192 14.5113L129.461 16.2887ZM138.033 27.4141L144.933 17.0641L139.94 13.7359L133.04 24.0859L138.033 27.4141ZM142.437 18.4H148.107V12.4H142.437V18.4ZM145.152 14.8789L141.342 36.4789L147.251 37.5211L151.061 15.9211L145.152 14.8789ZM144.297 34H138.867V40H144.297V34ZM141.821 37.5238L143.981 25.3438L138.073 24.2962L135.913 36.4762L141.821 37.5238ZM138.496 23.2094L133.876 30.4694L138.938 33.6906L143.558 26.4306L138.496 23.2094ZM136.407 29.08H132.477V35.08H136.407V29.08ZM135.365 31.2685L133.325 24.0085L127.548 25.6315L129.588 32.8915L135.365 31.2685ZM127.483 24.2962L125.323 36.4762L131.231 37.5238L133.391 25.3438L127.483 24.2962ZM128.277 34H122.877V40H128.277V34ZM125.831 37.5211L129.641 15.9211L123.732 14.8789L119.922 36.4789L125.831 37.5211ZM126.687 18.4H132.327V12.4H126.687V18.4Z" fill="#0275D8"/>
<path d="M54.1867 35.44C52.6067 36.76 50.3667 37.42 47.4667 37.42C44.5667 37.42 42.5567 36.75 41.4367 35.41C40.6367 34.49 40.2367 33.22 40.2367 31.6C40.2367 30.88 40.3167 30.09 40.4767 29.23L42.9067 15.4H48.3067L45.8767 29.11C45.7967 29.61 45.7567 30.13 45.7567 30.67C45.7567 32.07 46.5967 32.77 48.2767 32.77C49.2767 32.77 50.0767 32.51 50.6767 31.99C51.2767 31.47 51.6967 30.51 51.9367 29.11L54.3667 15.4H59.7667L57.3367 29.23C56.8367 32.03 55.7867 34.1 54.1867 35.44ZM78.7389 25.69C78.7389 26.35 78.5389 26.96 78.1389 27.52H73.2189C73.3789 27.4 73.4589 27.2 73.4589 26.92C73.4589 26.64 73.2989 26.42 72.9789 26.26C72.6589 26.08 72.2489 25.99 71.7489 25.99C70.2489 25.99 69.4989 26.45 69.4989 27.37C69.4989 27.73 69.7789 27.99 70.3389 28.15C70.8989 28.31 71.5789 28.44 72.3789 28.54C73.1789 28.64 73.9789 28.79 74.7789 28.99C75.5789 29.17 76.2589 29.54 76.8189 30.1C77.3789 30.66 77.6589 31.41 77.6589 32.35C77.6589 34.01 76.9889 35.27 75.6489 36.13C74.3289 36.99 72.3989 37.42 69.8589 37.42C67.3189 37.42 65.5389 37.01 64.5189 36.19C63.7189 35.55 63.3189 34.67 63.3189 33.55C63.3189 33.23 63.3489 32.9 63.4089 32.56L68.4189 32.5C68.3789 32.78 68.5389 33.03 68.8989 33.25C69.2789 33.45 69.8289 33.55 70.5489 33.55C71.2689 33.55 71.7889 33.48 72.1089 33.34C72.4289 33.18 72.5889 32.89 72.5889 32.47C72.5889 32.19 72.3089 32 71.7489 31.9C71.1889 31.78 70.4989 31.68 69.6789 31.6C68.8789 31.52 68.0689 31.39 67.2489 31.21C66.4489 31.03 65.7689 30.65 65.2089 30.07C64.6489 29.49 64.3689 28.73 64.3689 27.79C64.3689 25.97 65.0689 24.57 66.4689 23.59C67.8889 22.61 69.9289 22.12 72.5889 22.12C76.6889 22.12 78.7389 23.31 78.7389 25.69ZM89.8637 37.42C85.7037 37.42 83.6237 35.98 83.6237 33.1C83.6237 32.7 83.6637 32.27 83.7437 31.81L84.3737 28.09C84.7137 26.17 85.5937 24.7 87.0137 23.68C88.4537 22.64 90.3537 22.12 92.7137 22.12C96.7338 22.12 98.7438 23.64 98.7438 26.68C98.7438 27.12 98.7038 27.6 98.6238 28.12L98.2637 30.25H89.1137L88.9937 30.94C88.9537 31.18 88.9337 31.4 88.9337 31.6C88.9337 32.7 89.5837 33.25 90.8837 33.25C91.3637 33.25 91.7737 33.1 92.1137 32.8C92.4537 32.5 92.6537 32.15 92.7137 31.75L97.6937 31.81C97.0337 35.55 94.4237 37.42 89.8637 37.42ZM93.4637 28.42C93.5437 28.08 93.5837 27.77 93.5837 27.49C93.5837 27.19 93.4537 26.89 93.1937 26.59C92.9337 26.29 92.5137 26.14 91.9337 26.14C91.3737 26.14 90.8537 26.33 90.3737 26.71C89.9137 27.09 89.5937 27.66 89.4137 28.42H93.4637ZM118.506 25.63C118.506 26.31 118.386 26.97 118.146 27.61C117.926 28.25 117.706 28.72 117.486 29.02L117.156 29.44H112.626C113.126 28.98 113.376 28.41 113.376 27.73C113.376 27.37 113.256 27.08 113.016 26.86C112.796 26.62 112.486 26.5 112.086 26.5C111.406 26.5 110.816 26.84 110.316 27.52L108.636 37H103.536L106.086 22.57H110.826L110.466 24.58C111.606 22.96 112.986 22.15 114.606 22.15C115.906 22.15 116.876 22.46 117.516 23.08C118.176 23.7 118.506 24.55 118.506 25.63ZM132.327 15.4L135.537 25.75L142.437 15.4H148.107L144.297 37H138.867L141.027 24.82L136.407 32.08H132.477L130.437 24.82L128.277 37H122.877L126.687 15.4H132.327Z" fill="white"/>
<circle cx="18.75" cy="24.5" r="11.25" fill="white"/>
<path d="M19.375 9.5C10.9047 9.5 3.75 16.6547 3.75 25.125C3.75 33.5953 10.9047 40.75 19.375 40.75C27.8453 40.75 35 33.5953 35 25.125C35 16.6547 27.8453 9.5 19.375 9.5ZM19.375 17.3125C22.0734 17.3125 24.0625 19.3 24.0625 22C24.0625 24.7 22.0734 26.6875 19.375 26.6875C16.6781 26.6875 14.6875 24.7 14.6875 22C14.6875 19.3 16.6781 17.3125 19.375 17.3125ZM11.3969 32.5812C12.7984 30.5187 15.1359 29.1437 17.8125 29.1437H20.9375C23.6156 29.1437 25.9516 30.5187 27.3531 32.5812C25.3563 34.7187 22.5234 36.0625 19.375 36.0625C16.2266 36.0625 13.3938 34.7187 11.3969 32.5812Z" fill="#0275D8"/>
</svg>
